<svg xmlns="http://www.w3.org/2000/svg" xmlns:xlink="http://www.w3.org/1999/xlink" version="1.1" x="0px" y="0px" viewBox="0 0 100.0 100"><path d="M1000,260 l-280,150 c-52,28,-75,58,-75,85 c0,65,130,157,130,385 c0,190,-101,320,-274,320 c-192,0,-276,-160,-276,-321 c0,-212,127,-308,127,-379 c0,-28,-19,-62,-72,-90 l-280,-150 c-99,-53,-50,-260,-50,-260 l1100,0 c0,0,48,207,-50,260 Z M1000,260 " fill="#000000" stroke="none" stroke-dasharray="none" stroke-linecap="inherit" stroke-linejoin="inherit" stroke-width="1" transform="matrix(0.05,0.0,0.0,-0.05,20.0,80.0)"></path></svg>