<svg xmlns="http://www.w3.org/2000/svg" xmlns:xlink="http://www.w3.org/1999/xlink" id="svg" version="1.1" width="400" height="400" display="block"><g id="svgg"><path id="path0" d="M183.4 164.4C183.41 166.16 183.57 166.79 183.77 165.79 183.96 164.8 183.95 163.36 183.75 162.59 183.55 161.83 183.39 162.64 183.4 164.4M234.21 183.77C235.2 183.96 236.64 183.95 237.41 183.75 238.17 183.55 237.36 183.39 235.6 183.4 233.84 183.41 233.21 183.57 234.21 183.77M139.81 383.77C140.8 383.96 142.24 383.95 143.01 383.75 143.77 383.55 142.96 383.39 141.2 383.4 139.44 383.41 138.81 383.57 139.81 383.77" stroke="none" fill="#000000" fill-rule="evenodd"/><path id="path1" d="" stroke="none" fill="#ffffff" fill-rule="evenodd"/><path id="path2" d="M290.4 109.6C290.4 110.06 288 110.4 284.8 110.4 281.6 110.4 279.2 110.74 279.2 111.2 279.2 111.64 278.12 112 276.8 112 275.48 112 274.4 112.36 274.4 112.8 274.4 113.24 273.5 113.6 272.39 113.6 270.59 113.6 267.48 114.87 266.4 116.03 266.18 116.27 264.38 116.97 262.4 117.58 260.42 118.19 258.26 119.09 257.6 119.58 256.94 120.07 255.42 120.96 254.21 121.56 253.01 122.16 251.32 123.32 250.45 124.13 249.58 124.94 248.46 125.6 247.95 125.6 247.45 125.6 246.01 126.71 244.74 128.06 243.37 129.53 242.06 130.28 241.49 129.93 240.83 129.53 240.69 129.76 241.04 130.67 241.37 131.54 241.14 132 240.36 132 238.96 132 227.1 143.63 227.79 144.33 228.05 144.59 227.67 144.8 226.93 144.8 226.2 144.8 225.6 145.38 225.6 146.08 225.6 146.78 224.61 148.31 223.4 149.48 220.53 152.24 216.8 157.26 216.8 158.35 216.8 158.83 215.72 160.35 214.4 161.73 213.08 163.11 212 164.72 212 165.32 212 165.91 211.64 166.4 211.2 166.4 210.76 166.4 210.4 167.12 210.4 168 210.4 168.88 210.04 169.6 209.6 169.6 209.16 169.6 208.8 170.16 208.8 170.83 208.8 171.51 208.08 172.84 207.2 173.78 206.32 174.73 205.6 176.25 205.6 177.17 205.6 178.09 204.88 179.37 204 180 203.12 180.63 202.4 181.95 202.4 182.93 202.4 183.91 202.08 184.9 201.69 185.14 201.31 185.38 200.73 187.65 200.42 190.19 200.1 192.73 199.6 195.16 199.29 195.6 198.98 196.04 198.25 197.84 197.65 199.6 196.62 202.62 194.17 206.44 191 209.95 190.23 210.8 189.6 211.97 189.6 212.55 189.6 213.13 189.32 213.6 188.97 213.6 188.62 213.6 188.28 214.36 188.21 215.29 188.14 216.22 187.57 217.57 186.94 218.29 185.57 219.85 182.4 226.33 182.4 227.57 182.4 228.05 181.68 228.97 180.8 229.6 179.92 230.23 179.2 231.31 179.2 232 179.2 232.69 178.48 233.77 177.6 234.4 176.72 235.03 176 236.05 176 236.66 176 237.26 174.92 238.77 173.6 240 172.28 241.23 171.2 242.67 171.2 243.18 171.2 243.7 169.76 245.51 168 247.2 166.24 248.89 164.8 250.64 164.8 251.08 164.8 251.53 164.08 252.12 163.2 252.4 162.32 252.68 161.59 253.33 161.58 253.85 161.57 254.37 160.27 255.88 158.68 257.2 149.7 264.66 147.43 266.57 145.83 268.01 144.85 268.89 143.5 269.6 142.83 269.6 142.15 269.6 141.6 269.96 141.6 270.4 141.6 270.84 140.88 271.2 140 271.2 139.12 271.2 138.4 271.56 138.4 272 138.4 272.44 137.76 272.8 136.98 272.8 136.19 272.8 135.03 273.52 134.4 274.4 133.77 275.28 132.5 276 131.58 276 129.62 276 125.62 277.74 125.61 278.6 125.6 278.93 123.98 279.2 122 279.2 120.02 279.2 118.4 279.56 118.4 280 118.4 280.44 117.32 280.8 116 280.8 114.68 280.8 113.6 281.16 113.6 281.6 113.6 282.1 108.53 282.4 100 282.4 91.47 282.4 86.4 282.1 86.4 281.6 86.4 281.16 84.96 280.8 83.2 280.8 81.44 280.8 80 280.44 80 280 80 279.56 78.74 279.2 77.2 279.2 75.66 279.2 74.4 278.84 74.4 278.4 74.4 277.96 73.68 277.6 72.8 277.6 71.92 277.6 71.2 277.24 71.2 276.8 71.2 276.36 70.12 276 68.8 276 67.48 276 66.4 275.64 66.4 275.2 66.4 274.76 65.68 274.4 64.8 274.4 63.92 274.4 63.2 274.04 63.2 273.6 63.2 273.16 62.48 272.8 61.6 272.8 60.72 272.8 60 272.44 60 272 60 271.56 59.28 271.2 58.4 271.2 57.52 271.2 56.8 270.84 56.8 270.4 56.8 269.96 56.16 269.6 55.38 269.6 54.59 269.6 53.43 268.88 52.8 268 52.17 267.12 51.19 266.4 50.62 266.4 50.06 266.4 49.6 266.1 49.6 265.74 49.6 265.37 48.63 264.56 47.44 263.94 46.25 263.31 42.25 259.83 38.55 256.2 34.85 252.57 31.5 249.6 31.11 249.6 30.72 249.6 30.4 249.06 30.4 248.4 30.4 247.74 28.96 245.72 27.2 243.9 25.44 242.09 24 240.19 24 239.68 24 239.17 23.28 238.23 22.4 237.6 21.52 236.96 20.8 235.53 20.8 234.4 20.8 233.27 20.08 231.84 19.2 231.2 18.32 230.57 17.6 229.31 17.6 228.4 17.6 227.5 17.1 226.04 16.49 225.17 15.88 224.3 14.92 222.06 14.36 220.19 13.8 218.33 13.04 216.8 12.67 216.8 12.3 216.8 12 215.72 12 214.4 12 213.08 11.64 212 11.2 212 10.76 212 10.4 210.4 10.4 208.45 10.4 206.49 10.04 204.67 9.6 204.4 9.16 204.13 8.8 202.69 8.8 201.2 8.8 199.71 8.44 198.27 8 198 7.52 197.7 7.2 192.01 7.2 183.6 7.2 175.19 7.52 169.5 8 169.2 8.44 168.93 8.8 167.49 8.8 166 8.8 164.51 9.16 163.07 9.6 162.8 10.04 162.53 10.4 160.71 10.4 158.75 10.4 156.8 10.76 155.2 11.2 155.2 11.64 155.2 12 154.12 12 152.8 12 151.48 12.36 150.4 12.8 150.4 13.24 150.4 13.6 149.87 13.6 149.22 13.6 148.57 14.5 146.01 15.6 143.52 16.7 141.04 17.6 138.23 17.6 137.28 17.6 136.33 18.32 135.03 19.2 134.4 20.08 133.76 20.8 132.33 20.8 131.2 20.8 130.07 21.52 128.64 22.4 128 23.28 127.37 24 126.29 24 125.6 24 124.91 24.72 123.83 25.6 123.2 26.48 122.57 27.2 121.41 27.2 120.62 27.2 119.84 27.56 119.2 28 119.2 28.44 119.2 28.8 118.3 28.8 117.2 28.8 115.73 28.37 115.2 27.2 115.2 26.32 115.2 25.6 114.84 25.6 114.4 25.6 113.19 21.64 113.44 20.34 114.74 19.71 115.37 19.2 116.46 19.2 117.17 19.2 117.87 18.66 118.66 18 118.91 17.34 119.16 16.8 119.89 16.8 120.52 16.8 121.15 16.08 122.44 15.2 123.38 14.32 124.33 13.6 125.85 13.6 126.77 13.6 127.69 12.88 128.97 12 129.6 11.12 130.23 10.4 131.55 10.4 132.53 10.4 133.51 10.04 134.53 9.6 134.8 9.16 135.07 8.8 135.83 8.8 136.48 8.8 137.13 8.08 138.44 7.2 139.38 6.27 140.39 5.6 142.21 5.6 143.75 5.6 145.21 5.24 146.4 4.8 146.4 4.36 146.4 4 147.12 4 148 4 148.88 3.64 149.6 3.2 149.6 2.76 149.6 2.4 151.19 2.4 153.13 2.4 155.25 2 156.8 1.4 157 0.63 157.26 0.4 163.3 0.4 183.6 0.4 203.9 0.63 209.94 1.4 210.2 2 210.4 2.4 211.95 2.4 214.07 2.4 216.01 2.76 217.6 3.2 217.6 3.64 217.6 4 218.32 4 219.2 4 220.08 4.36 220.8 4.8 220.8 5.24 220.8 5.6 221.88 5.6 223.2 5.6 224.52 5.96 225.6 6.4 225.6 6.84 225.6 7.2 226.32 7.2 227.2 7.2 228.08 7.56 228.8 8 228.8 8.44 228.8 8.8 229.52 8.8 230.4 8.8 231.28 9.16 232 9.6 232 10.04 232 10.4 232.64 10.4 233.42 10.4 234.21 11.12 235.37 12 236 12.88 236.63 13.6 237.91 13.6 238.83 13.6 239.75 14.23 241.21 15 242.08 15.77 242.96 16.94 244.62 17.6 245.77 20.51 250.87 39.85 271.2 41.8 271.2 42.38 271.2 43.37 271.92 44 272.8 44.63 273.68 45.66 274.4 46.28 274.4 46.9 274.4 48 275.06 48.71 275.87 50.39 277.78 61.58 283.2 63.85 283.2 64.81 283.2 65.6 283.47 65.61 283.8 65.61 284.61 69.57 286.4 71.36 286.4 72.15 286.4 72.8 286.76 72.8 287.2 72.8 287.64 74.6 288 76.8 288 79 288 80.8 288.36 80.8 288.8 80.8 289.24 82.06 289.6 83.6 289.6 85.14 289.6 86.4 289.96 86.4 290.4 86.4 290.9 91.33 291.2 99.6 291.2 107.87 291.2 112.8 290.9 112.8 290.4 112.8 289.96 114.24 289.6 116 289.6 117.76 289.6 119.2 289.24 119.2 288.8 119.2 288.36 120.8 288 122.75 288 124.71 288 126.53 287.64 126.8 287.2 127.07 286.76 127.99 286.4 128.85 286.4 129.7 286.4 130.4 286.04 130.4 285.6 130.4 285.16 131.12 284.8 132 284.8 132.88 284.8 133.6 284.44 133.6 284 133.6 283.56 134.65 283.2 135.94 283.2 137.23 283.2 138.83 282.66 139.49 282 140.15 281.34 141.16 280.79 141.74 280.78 142.32 280.77 143.7 280.06 144.8 279.2 145.9 278.34 147.17 277.63 147.62 277.62 148.08 277.61 148.97 276.88 149.6 276 150.23 275.12 151.24 274.4 151.84 274.4 152.44 274.4 154.31 272.96 156 271.2 157.69 269.44 159.47 268 159.95 268 161.06 268 172.8 256.31 172.8 255.21 172.8 254.76 174.17 253.05 175.85 251.4 179.66 247.66 183.2 242.85 183.2 241.43 183.2 240.84 183.92 239.83 184.8 239.2 185.68 238.57 186.4 237.49 186.4 236.8 186.4 236.11 187.12 235.03 188 234.4 188.88 233.77 189.6 232.61 189.6 231.82 189.6 231.04 189.87 230.4 190.2 230.39 190.87 230.39 192.8 226.55 192.8 225.22 192.8 224.74 193.52 223.83 194.4 223.2 195.34 222.52 196 221.13 196 219.82 196 218.6 196.36 217.6 196.8 217.6 197.24 217.6 197.6 217.06 197.6 216.4 197.6 215.74 197.91 215.2 198.29 215.2 198.67 215.2 199.21 213.13 199.5 210.6 199.94 206.7 203.97 196.61 205.64 195.2 205.91 194.98 206.8 193.63 207.63 192.2 208.46 190.77 209.43 189.6 209.77 189.6 210.12 189.6 210.4 188.6 210.4 187.38 210.4 186.07 211.06 184.68 212 184 212.88 183.37 213.6 182.19 213.6 181.39 213.6 180.59 214.3 179.18 215.16 178.26 216.02 177.34 216.95 175.55 217.22 174.29 217.5 173.03 218.06 172 218.46 172 218.87 172 219.2 171.46 219.2 170.8 219.2 170.14 219.56 169.6 220 169.6 220.44 169.6 220.8 168.96 220.8 168.18 220.8 167.39 221.52 166.23 222.4 165.6 223.28 164.97 224 163.99 224 163.42 224 162.86 225.44 160.92 227.2 159.1 228.96 157.29 230.4 155.46 230.4 155.04 230.4 154.62 231.84 152.85 233.6 151.11 235.36 149.36 236.8 147.79 236.8 147.6 236.8 147.05 240.23 143.81 244.84 140 247.24 138.02 249.32 136.13 249.47 135.8 249.61 135.47 250.11 135.2 250.57 135.2 251.04 135.2 252 134.57 252.71 133.79 253.42 133.02 254.99 131.88 256.2 131.26 257.41 130.64 258.4 129.83 258.4 129.47 258.4 129.1 259.04 128.8 259.82 128.8 260.61 128.8 261.77 128.08 262.4 127.2 263.08 126.26 264.47 125.6 265.78 125.6 267 125.6 268 125.24 268 124.8 268 124.36 268.72 124 269.6 124 270.48 124 271.2 123.64 271.2 123.2 271.2 122.76 272.08 122.4 273.15 122.4 274.23 122.4 275.33 122.04 275.6 121.6 275.87 121.16 276.97 120.8 278.05 120.8 279.12 120.8 280 120.44 280 120 280 119.56 281.96 119.2 284.35 119.2 286.75 119.2 288.93 118.84 289.2 118.4 289.49 117.93 294.13 117.6 300.4 117.6 306.67 117.6 311.31 117.93 311.6 118.4 311.87 118.84 314.05 119.2 316.45 119.2 318.84 119.2 320.8 119.56 320.8 120 320.8 120.44 321.7 120.8 322.8 120.8 323.9 120.8 324.8 121.16 324.8 121.6 324.8 122.04 326.06 122.4 327.6 122.4 329.14 122.4 330.4 122.76 330.4 123.2 330.4 123.64 331.12 124 332 124 332.88 124 333.6 124.36 333.6 124.8 333.6 125.24 334.6 125.6 335.82 125.6 337.13 125.6 338.52 126.26 339.2 127.2 339.83 128.08 340.99 128.8 341.78 128.8 342.56 128.8 343.2 129.16 343.2 129.6 343.2 130.04 343.84 130.4 344.62 130.4 345.41 130.4 346.57 131.12 347.2 132 347.83 132.88 348.76 133.6 349.26 133.6 349.76 133.6 351.29 134.68 352.67 136 354.06 137.32 355.38 138.4 355.61 138.4 355.84 138.4 358.66 141.01 361.89 144.2 365.11 147.39 368.53 150.53 369.48 151.18 370.42 151.82 371.2 152.91 371.2 153.6 371.2 154.29 371.92 155.37 372.8 156 373.68 156.63 374.4 157.71 374.4 158.4 374.4 159.09 375.12 160.17 376 160.8 376.88 161.43 377.6 162.51 377.6 163.2 377.6 163.89 378.32 164.97 379.2 165.6 380.08 166.23 380.81 167.48 380.82 168.38 380.83 169.27 381.54 170.9 382.4 172 383.26 173.1 383.97 174.47 383.98 175.05 383.99 175.63 384.9 178.07 386 180.48 387.1 182.88 388 185.56 388 186.42 388 187.29 388.36 188 388.8 188 389.24 188 389.6 189.08 389.6 190.4 389.6 191.72 389.96 192.8 390.4 192.8 390.86 192.8 391.2 195.18 391.2 198.35 391.2 201.41 391.56 204.13 392 204.4 392.98 205.01 393.1 226.92 392.12 227.53 391.75 227.76 391.37 230.57 391.28 233.77 391.19 236.98 390.77 239.72 390.36 239.87 389.94 240.01 389.6 240.93 389.6 241.91 389.6 242.88 389.29 244.02 388.92 244.44 388.54 244.86 387.75 247 387.16 249.2 386.57 251.4 385.62 254.1 385.05 255.2 384.48 256.3 384.01 257.94 384.01 258.85 384 259.76 383.28 261.27 382.4 262.22 381.52 263.16 380.8 264.77 380.8 265.79 380.8 266.81 380.08 268.17 379.2 268.8 378.32 269.43 377.6 270.59 377.6 271.38 377.6 272.16 377.24 272.8 376.8 272.8 376.36 272.8 376 273.52 376 274.4 376 275.28 375.64 276 375.2 276 374.76 276 374.4 276.64 374.4 277.42 374.4 278.21 373.68 279.37 372.8 280 370.74 281.49 370.78 282.06 373.16 284.44 375.3 286.57 377.96 286.98 379.47 285.4 381.22 283.57 383.2 280.07 383.2 278.83 383.2 278.15 383.56 277.6 384 277.6 384.44 277.6 384.8 276.96 384.8 276.18 384.8 275.39 385.52 274.23 386.4 273.6 387.28 272.96 388 271.53 388 270.4 388 269.27 388.72 267.84 389.6 267.2 390.48 266.57 391.2 265.25 391.2 264.27 391.2 263.29 391.56 262.27 392 262 392.44 261.73 392.8 260.81 392.8 259.95 392.8 259.1 393.16 258.4 393.6 258.4 394.04 258.4 394.4 257.68 394.4 256.8 394.4 255.92 394.76 255.2 395.2 255.2 395.64 255.2 396 253.96 396 252.45 396 250.93 396.36 249.47 396.8 249.2 397.24 248.93 397.6 247.9 397.6 246.91 397.6 245.93 398.05 244.67 398.6 244.12 399.36 243.36 399.6 236.71 399.6 216.4 399.6 196.09 399.36 189.44 398.6 188.68 398.05 188.13 397.6 186.85 397.6 185.84 397.6 184.83 397.24 184 396.8 184 396.36 184 396 182.81 396 181.35 396 179.81 395.33 177.99 394.4 176.98 393.52 176.04 392.8 174.6 392.8 173.79 392.8 171.98 391.02 168.02 390.2 168.01 389.87 168 389.6 167.28 389.6 166.4 389.6 165.52 389.24 164.8 388.8 164.8 388.36 164.8 388 164.16 388 163.38 388 162.59 387.28 161.43 386.4 160.8 385.52 160.17 384.8 159.01 384.8 158.22 384.8 157.44 384.45 156.8 384.02 156.8 383.58 156.8 383.01 155.93 382.74 154.86 382.48 153.79 381.57 152.29 380.73 151.54 379.89 150.77 379.2 149.83 379.2 149.43 379.2 148.57 358.51 128 357.65 128 357.32 128 356 127.1 354.72 126 353.45 124.9 351.95 124 351.4 124 350.85 124 350.4 123.73 350.4 123.4 350.4 123.06 349.23 122.29 347.8 121.68 346.37 121.07 344.66 120.13 344 119.6 343.34 119.06 341.09 118.14 339 117.54 336.91 116.94 335.2 116.17 335.2 115.83 335.2 115.48 334.5 115.2 333.65 115.2 332.79 115.2 331.87 114.84 331.6 114.4 331.33 113.96 329.87 113.6 328.35 113.6 326.84 113.6 325.6 113.24 325.6 112.8 325.6 112.36 324.88 112 324 112 323.12 112 322.4 111.64 322.4 111.2 322.4 110.74 319.87 110.4 316.4 110.4 312.93 110.4 310.4 110.06 310.4 109.6 310.4 109.11 306.53 108.8 300.4 108.8 294.27 108.8 290.4 109.11 290.4 109.6" stroke="none" fill="#ff6600" fill-rule="evenodd"/><path id="path3" d="" stroke="none" fill="#ffff00" fill-rule="evenodd"/><path id="path4" d="M192.2 0.55C190.77 0.74 189.6 1.24 189.6 1.65 189.6 2.06 187.98 2.4 186 2.4 184.02 2.4 182.4 2.76 182.4 3.2 182.4 3.64 181.68 4 180.8 4 179.92 4 179.2 4.36 179.2 4.8 179.2 5.24 178.12 5.6 176.8 5.6 175.48 5.6 174.4 5.96 174.4 6.4 174.4 6.84 173.68 7.2 172.8 7.2 171.92 7.2 171.2 7.56 171.2 8 171.2 8.44 170.48 8.8 169.6 8.8 168.72 8.8 168 9.16 168 9.6 168 10.04 167.28 10.4 166.4 10.4 165.52 10.4 164.8 10.76 164.8 11.2 164.8 11.64 164.08 12 163.2 12 162.32 12 161.6 12.36 161.6 12.8 161.6 13.24 160.96 13.6 160.18 13.6 159.39 13.6 158.23 14.32 157.6 15.2 156.97 16.08 155.85 16.8 155.12 16.8 154.39 16.8 153.35 17.34 152.8 18 152.25 18.66 151.49 19.2 151.1 19.2 149.97 19.2 127.2 42.27 127.2 43.42 127.2 43.98 126.48 44.97 125.6 45.6 124.72 46.23 124 47.39 124 48.18 124 48.96 123.73 49.6 123.4 49.6 123.06 49.6 122.29 50.77 121.68 52.2 121.07 53.63 119.94 55.52 119.17 56.4 118.4 57.28 117.52 59.53 117.21 61.4 116.91 63.27 116.33 64.8 115.93 64.8 115.53 64.8 115.2 65.88 115.2 67.2 115.2 68.52 114.84 69.6 114.4 69.6 113.96 69.6 113.6 70.68 113.6 72 113.6 73.32 113.24 74.4 112.8 74.4 112.36 74.4 112 75.12 112 76 112 76.88 111.64 77.6 111.2 77.6 110.74 77.6 110.4 80.13 110.4 83.6 110.4 87.07 110.06 89.6 109.6 89.6 109.11 89.6 108.8 93.33 108.8 99.2 108.8 105.07 109.11 108.8 109.6 108.8 110.06 108.8 110.4 111.33 110.4 114.8 110.4 118.27 110.74 120.8 111.2 120.8 111.64 120.8 112 121.88 112 123.2 112 124.52 112.36 125.6 112.8 125.6 113.24 125.6 113.6 126.32 113.6 127.2 113.6 128.08 113.96 128.8 114.4 128.8 114.84 128.8 115.2 129.88 115.2 131.2 115.2 132.52 115.54 133.6 115.95 133.6 116.36 133.6 116.94 135.21 117.24 137.17 117.53 139.14 118.29 141.18 118.93 141.71 119.56 142.23 120.76 144.16 121.59 145.98 122.43 147.81 124.03 150 125.15 150.84 126.28 151.69 127.2 152.94 127.2 153.61 127.2 154.29 127.92 155.37 128.8 156 129.68 156.63 130.4 157.62 130.4 158.19 130.4 159.52 145.25 174.4 146.59 174.41 147.15 174.41 148.45 175.49 149.49 176.81 150.53 178.12 151.82 179.2 152.35 179.2 152.88 179.2 154.17 180.1 155.2 181.2 156.23 182.3 157.66 183.2 158.36 183.2 159.07 183.2 160.17 183.92 160.8 184.8 161.43 185.68 162.51 186.4 163.2 186.4 163.89 186.4 164.97 187.12 165.6 188 166.23 188.88 167.39 189.6 168.18 189.6 168.96 189.6 169.6 189.96 169.6 190.4 169.6 190.84 170.32 191.2 171.2 191.2 172.08 191.2 172.8 191.56 172.8 192 172.8 192.44 173.44 192.8 174.22 192.8 175.01 192.8 176.17 193.52 176.8 194.4 177.48 195.34 178.87 196 180.18 196 181.4 196 182.4 196.36 182.4 196.8 182.4 197.24 182.94 197.6 183.6 197.6 184.26 197.6 184.8 197.96 184.8 198.4 184.8 198.84 185.52 199.2 186.4 199.2 187.28 199.2 188 199.56 188 200 188 200.44 187.28 200.8 186.4 200.8 185.52 200.8 184.8 201.16 184.8 201.6 184.8 202.04 183.54 202.4 182 202.4 180.46 202.4 179.2 202.76 179.2 203.2 179.2 203.64 178.48 204 177.6 204 176.72 204 176 204.36 176 204.8 176 205.24 174.2 205.6 172 205.6 169.8 205.6 168 205.96 168 206.4 168 206.84 166.92 207.2 165.6 207.2 164.28 207.2 163.2 207.56 163.2 208 163.2 208.46 160.8 208.8 157.6 208.8 154.4 208.8 152 209.14 152 209.6 152 210.04 150.38 210.4 148.4 210.4 146.42 210.4 144.8 210.76 144.8 211.2 144.8 211.7 140.53 212 133.6 212 126.67 212 122.4 211.7 122.4 211.2 122.4 210.76 120.8 210.4 118.85 210.4 116.89 210.4 115.07 210.04 114.8 209.6 114.53 209.16 112.35 208.8 109.95 208.8 107.56 208.8 105.6 208.44 105.6 208 105.6 207.56 104.88 207.2 104 207.2 103.12 207.2 102.4 206.84 102.4 206.4 102.4 205.96 101.32 205.6 100 205.6 98.68 205.6 97.6 205.24 97.6 204.8 97.6 204.36 96.88 204 96 204 95.12 204 94.4 203.64 94.4 203.2 94.4 202.76 93.4 202.4 92.18 202.4 90.87 202.4 89.48 201.74 88.8 200.8 88.17 199.92 87.01 199.2 86.22 199.2 85.44 199.2 84.8 198.84 84.8 198.4 84.8 197.96 84.32 197.6 83.73 197.6 82.49 197.6 78.19 193.09 77.35 190.91 76.98 189.93 76.25 189.56 75.24 189.82 74.25 190.08 73.04 189.48 71.81 188.11 70.77 186.95 68.77 185.1 67.36 184 65.96 182.9 64.81 181.45 64.81 180.78 64.8 180.1 64.08 179.03 63.2 178.4 62.32 177.77 61.6 176.69 61.6 176 61.6 175.31 60.88 174.23 60 173.6 59.12 172.97 58.4 171.81 58.4 171.02 58.4 170.24 58.04 169.6 57.6 169.6 57.16 169.6 56.8 168.96 56.8 168.18 56.8 167.39 56.08 166.23 55.2 165.6 54.26 164.92 53.6 163.53 53.6 162.22 53.6 161 53.24 160 52.8 160 52.36 160 52 159.28 52 158.4 52 157.52 51.69 156.8 51.31 156.8 50.93 156.8 50.4 154.91 50.13 152.6 49.85 150.3 49.26 148.29 48.82 148.14 48.37 147.99 48 145.38 48 142.33 48 139.18 47.66 136.8 47.2 136.8 46.7 136.8 46.4 131.88 46.4 123.65 46.4 115.74 46.72 110.3 47.2 110 47.64 109.73 48 107.19 48 104.35 48 101.52 48.34 99.2 48.75 99.2 49.17 99.2 49.75 96.68 50.06 93.6 50.36 90.52 50.92 88 51.3 88 51.69 88 52 87.36 52 86.58 52 85.79 52.72 84.63 53.6 84 54.48 83.37 55.2 82.11 55.2 81.2 55.2 80.29 55.92 79.03 56.8 78.4 57.68 77.76 58.4 76.33 58.4 75.2 58.4 74.07 59.12 72.64 60 72 60.88 71.37 61.6 70.29 61.6 69.6 61.6 68.91 62.32 67.83 63.2 67.2 64.08 66.57 64.8 65.49 64.8 64.8 64.8 64.11 65.52 63.03 66.4 62.4 67.28 61.77 68 60.75 68 60.15 68 58.9 82.35 44.81 83.62 44.8 84.08 44.8 84.97 44.08 85.6 43.2 86.23 42.32 87.31 41.6 88 41.6 88.69 41.6 89.77 40.88 90.4 40 91.03 39.12 92.11 38.4 92.8 38.4 93.49 38.4 94.57 37.68 95.2 36.8 95.83 35.92 96.99 35.2 97.78 35.2 98.56 35.2 99.2 34.84 99.2 34.4 99.2 33.96 99.92 33.6 100.8 33.6 101.68 33.6 102.4 33.24 102.4 32.8 102.4 32.36 103.12 32 104 32 104.88 32 105.6 31.64 105.6 31.2 105.6 30.76 106.32 30.4 107.2 30.4 108.08 30.4 108.8 30.04 108.8 29.6 108.8 29.16 109.52 28.8 110.4 28.8 111.28 28.8 112 28.44 112 28 112 27.56 113.26 27.2 114.8 27.2 116.34 27.2 117.6 26.84 117.6 26.4 117.6 25.96 118.32 25.6 119.2 25.6 120.08 25.6 120.8 25.24 120.8 24.8 120.8 24.36 122.24 24 124 24 125.76 24 127.2 23.64 127.2 23.2 127.2 22.76 128.28 22.4 129.6 22.4 130.92 22.4 132 22.04 132 21.6 132 21.16 133.44 20.8 135.2 20.8 138.08 20.8 138.4 20.6 138.4 18.8 138.4 17.7 138.04 16.8 137.6 16.8 137.16 16.8 136.8 16.08 136.8 15.2 136.8 13.78 136.27 13.6 132 13.6 129.33 13.6 127.2 13.96 127.2 14.4 127.2 14.84 126.12 15.2 124.8 15.2 123.48 15.2 122.4 15.51 122.4 15.89 122.4 16.27 120.16 16.78 117.42 17.03 114.68 17.28 112.31 17.87 112.15 18.34 112 18.81 110.82 19.2 109.53 19.2 108.25 19.2 107.2 19.56 107.2 20 107.2 20.44 106.48 20.8 105.6 20.8 104.72 20.8 104 21.16 104 21.6 104 22.04 103.16 22.4 102.12 22.4 101.09 22.4 99.6 23.12 98.8 24 98 24.88 96.42 25.6 95.28 25.61 93.93 25.61 92.54 26.46 91.31 28.01 90.27 29.32 88.74 30.4 87.91 30.4 87.08 30.4 86.4 30.76 86.4 31.2 86.4 31.64 86 32 85.52 32 85.04 32 83.63 33.08 82.4 34.4 81.17 35.72 79.73 36.8 79.22 36.8 78.7 36.8 76.89 38.24 75.2 40 73.51 41.76 71.56 43.2 70.86 43.2 70.13 43.2 69.6 43.88 69.6 44.8 69.6 45.87 69.07 46.4 68 46.4 66.93 46.4 66.4 46.93 66.4 48 66.4 48.88 66.13 49.61 65.8 49.61 64.63 49.64 60 54.23 60 55.36 60 55.99 58.92 57.54 57.6 58.8 56.28 60.07 55.2 61.49 55.2 61.97 55.2 62.45 54.48 63.37 53.6 64 52.72 64.63 52 65.75 52 66.48 52 67.21 51.46 68.25 50.8 68.8 50.14 69.35 49.6 70.75 49.6 71.92 49.6 73.13 48.91 74.55 48 75.2 47.06 75.88 46.4 77.27 46.4 78.58 46.4 79.8 46.04 80.8 45.6 80.8 45.16 80.8 44.8 81.52 44.8 82.4 44.8 83.28 44.44 84 44 84 43.56 84 43.2 85.26 43.2 86.8 43.2 88.34 42.84 89.6 42.4 89.6 41.96 89.6 41.6 90.32 41.6 91.2 41.6 92.08 41.24 92.8 40.8 92.8 40.36 92.8 40 94.93 40 97.6 40 100.27 39.64 102.4 39.2 102.4 38.76 102.4 38.4 104.2 38.4 106.4 38.4 108.6 38.04 110.4 37.6 110.4 37.1 110.4 36.8 115.33 36.8 123.6 36.8 131.87 37.1 136.8 37.6 136.8 38.04 136.8 38.4 138.6 38.4 140.8 38.4 143 38.76 144.8 39.2 144.8 39.64 144.8 40 146.42 40 148.4 40 150.38 40.36 152 40.8 152 41.24 152 41.6 153.08 41.6 154.4 41.6 155.72 41.96 156.8 42.4 156.8 42.84 156.8 43.2 157.88 43.2 159.2 43.2 160.52 43.56 161.6 44 161.6 44.44 161.6 44.8 162.32 44.8 163.2 44.8 164.08 45.16 164.8 45.6 164.8 46.04 164.8 46.4 165.88 46.4 167.2 46.4 168.52 46.76 169.6 47.2 169.6 47.64 169.6 48 170.32 48 171.2 48 172.08 48.35 172.8 48.79 172.8 49.22 172.8 49.79 173.67 50.06 174.74 50.33 175.81 51.23 177.31 52.07 178.07 52.91 178.83 53.6 179.93 53.6 180.52 53.6 181.11 54.32 182.04 55.2 182.59 56.08 183.14 56.8 184.04 56.8 184.6 56.8 185.84 71.63 200.8 72.85 200.8 73.33 200.8 75.11 202.24 76.8 204 78.67 205.94 80.61 207.2 81.75 207.2 82.77 207.2 84.07 207.92 84.61 208.8 85.18 209.7 86.48 210.4 87.6 210.4 88.72 210.4 90.02 211.1 90.59 212 91.25 213.07 92.45 213.6 94.2 213.6 96.57 213.6 99.76 214.81 100.8 216.1 101.02 216.37 104.35 216.85 108.2 217.17 112.05 217.49 115.2 218.07 115.2 218.47 115.2 218.89 123.08 219.2 133.6 219.2 144.2 219.2 152 218.89 152 218.47 152 218.07 155.96 217.48 160.8 217.17 165.64 216.85 169.6 216.28 169.6 215.9 169.6 215.51 170.48 215.2 171.55 215.2 172.63 215.2 173.73 214.84 174 214.4 174.27 213.96 175.48 213.6 176.69 213.6 179.08 213.6 183.18 211.96 183.19 211 183.2 210.67 184.64 210.4 186.4 210.4 188.16 210.4 189.6 210.04 189.6 209.6 189.6 209.16 190.23 208.79 191 208.77 192.58 208.74 195.94 204.21 197.51 200 198.09 198.46 198.86 196.48 199.22 195.6 200.42 192.71 200.92 188 200.04 188 199.58 188 199.2 187.1 199.2 186 199.2 184.9 198.84 184 198.4 184 197.96 184 197.6 183.28 197.6 182.4 197.6 181.52 197.24 180.8 196.8 180.8 196.36 180.8 196 179.36 196 177.6 196 175.84 195.64 174.4 195.2 174.4 194.76 174.4 194.4 173.32 194.4 172 194.4 170.68 194.04 169.6 193.6 169.6 193.16 169.6 192.8 167.8 192.8 165.6 192.8 163.4 192.44 161.6 192 161.6 191.56 161.6 191.2 160.16 191.2 158.4 191.2 156.64 190.84 155.2 190.4 155.2 189.91 155.2 189.6 151.33 189.6 145.2 189.6 139.07 189.29 135.2 188.8 135.2 188.36 135.2 188 134.12 188 132.8 188 131.48 188.36 130.4 188.8 130.4 189.29 130.4 189.6 126.8 189.6 121.2 189.6 115.6 189.91 112 190.4 112 190.84 112 191.2 110.92 191.2 109.6 191.2 108.28 191.56 107.2 192 107.2 192.44 107.2 192.8 105.76 192.8 104 192.8 102.24 193.16 100.8 193.6 100.8 194.04 100.8 194.4 100.08 194.4 99.2 194.4 98.32 194.76 97.6 195.2 97.6 195.64 97.6 196 96.6 196 95.38 196 94.07 196.66 92.68 197.6 92 198.48 91.37 199.2 90.21 199.2 89.42 199.2 88.64 199.56 88 200 88 200.44 88 200.8 87.28 200.8 86.4 200.8 85.52 201.16 84.8 201.6 84.8 202.04 84.8 202.4 84.42 202.4 83.96 202.4 83.49 203.48 81.96 204.8 80.56 206.11 79.15 207.19 77.67 207.2 77.28 207.2 76.88 209.54 74.26 212.4 71.45 215.26 68.65 217.6 66.01 217.6 65.58 217.6 65.15 218.24 64.8 219.02 64.8 219.81 64.8 220.97 64.08 221.6 63.2 222.23 62.32 223.31 61.6 224 61.6 224.69 61.6 225.77 60.88 226.4 60 227.03 59.12 228.11 58.4 228.8 58.4 229.49 58.4 230.57 57.68 231.2 56.8 231.83 55.92 232.99 55.2 233.78 55.2 234.56 55.2 235.2 54.84 235.2 54.4 235.2 53.96 236.28 53.6 237.6 53.6 238.92 53.6 240 53.24 240 52.8 240 52.36 240.72 52 241.6 52 242.48 52 243.2 51.69 243.2 51.3 243.2 50.92 245.08 50.42 247.37 50.2 249.66 49.98 251.67 49.4 251.83 48.9 252.01 48.38 253.95 48 256.42 48 258.78 48 260.93 47.64 261.2 47.2 261.87 46.12 290.93 46.12 291.6 47.2 291.87 47.64 294.05 48 296.45 48 298.84 48 300.8 48.34 300.8 48.75 300.8 49.17 303.32 49.75 306.4 50.06 309.48 50.36 312 50.92 312 51.3 312 51.69 312.64 52 313.42 52 314.21 52 315.37 52.72 316 53.6 316.63 54.48 317.97 55.2 318.98 55.2 319.98 55.2 320.8 55.56 320.8 56 320.8 56.44 321.52 56.8 322.4 56.8 323.28 56.8 324 57.16 324 57.6 324 58.04 324.64 58.4 325.42 58.4 326.21 58.4 327.37 59.12 328 60 328.63 60.88 329.71 61.6 330.4 61.6 331.09 61.6 332.17 62.32 332.8 63.2 333.43 64.08 334.51 64.8 335.2 64.8 335.89 64.8 336.97 65.52 337.6 66.4 338.23 67.28 339.25 68 339.86 68 341.02 68 353.6 80.67 353.6 81.84 353.6 82.22 355.04 83.91 356.8 85.6 358.56 87.29 360 89.16 360 89.76 360 90.36 360.72 91.37 361.6 92 362.48 92.64 363.2 94.07 363.2 95.2 363.2 96.33 363.92 97.76 364.8 98.4 365.68 99.03 366.4 100.19 366.4 100.98 366.4 101.76 366.76 102.4 367.2 102.4 367.64 102.4 368 103.12 368 104 368 104.88 368.36 105.6 368.8 105.6 369.24 105.6 369.6 106.32 369.6 107.2 369.6 108.08 369.96 108.8 370.4 108.8 370.84 108.8 371.2 109.68 371.2 110.75 371.2 111.83 371.56 112.93 372 113.2 372.44 113.47 372.8 114.39 372.8 115.25 372.8 116.1 373.16 116.8 373.6 116.8 374.04 116.8 374.4 118.06 374.4 119.6 374.4 121.14 374.76 122.4 375.2 122.4 375.64 122.4 376 123.12 376 124 376 124.88 376.36 125.6 376.8 125.6 377.24 125.6 377.6 127.73 377.6 130.4 377.6 133.07 377.96 135.2 378.4 135.2 378.84 135.2 379.2 135.92 379.2 136.8 379.2 137.97 379.73 138.4 381.2 138.4 382.3 138.4 383.2 138.04 383.2 137.6 383.2 137.16 383.92 136.8 384.8 136.8 386.19 136.8 386.4 136.27 386.4 132.8 386.4 130.6 386.04 128.8 385.6 128.8 385.16 128.8 384.8 127.03 384.8 124.87 384.8 122.7 384.45 120.81 384.03 120.67 383.6 120.52 383.01 118.24 382.7 115.6 382.32 112.31 381.68 110.47 380.67 109.76 379.69 109.06 379.2 107.71 379.2 105.73 379.2 103.67 378.71 102.4 377.6 101.6 376.72 100.96 376 99.53 376 98.4 376 97.27 375.28 95.84 374.4 95.2 373.52 94.57 372.8 93.41 372.8 92.62 372.8 91.84 372.44 91.2 372 91.2 371.56 91.2 371.2 90.56 371.2 89.78 371.2 88.99 370.48 87.83 369.6 87.2 368.72 86.57 368 85.67 368 85.2 368 84.73 367.28 83.83 366.4 83.2 365.52 82.57 364.8 81.61 364.8 81.07 364.8 80.53 360.3 75.5 354.8 69.89 349.3 64.28 344.8 59.4 344.8 59.05 344.8 58.69 344.14 58.4 343.32 58.4 342.51 58.4 341.2 57.68 340.4 56.8 339.6 55.92 338.55 55.2 338.05 55.2 337.56 55.2 336.63 54.48 336 53.6 335.37 52.72 334.43 52 333.92 52 333.4 52 331.95 51.46 330.69 50.81 329.43 50.15 327.85 49.61 327.18 49.61 326.5 49.6 325.43 48.88 324.8 48 324.12 47.06 322.73 46.4 321.42 46.4 320.2 46.4 319.2 46.04 319.2 45.6 319.2 45.16 318.66 44.8 318 44.8 317.34 44.8 316.8 44.44 316.8 44 316.8 43.56 315.36 43.2 313.6 43.2 311.84 43.2 310.4 42.84 310.4 42.4 310.4 41.96 309.68 41.6 308.8 41.6 307.92 41.6 307.2 41.24 307.2 40.8 307.2 40.36 305.07 40 302.4 40 299.73 40 297.6 39.64 297.6 39.2 297.6 38.76 295.8 38.4 293.6 38.4 291.4 38.4 289.6 38.04 289.6 37.6 289.6 37.1 284.67 36.8 276.4 36.8 268.13 36.8 263.2 37.1 263.2 37.6 263.2 38.04 261.4 38.4 259.2 38.4 257 38.4 255.2 38.76 255.2 39.2 255.2 39.64 253.58 40 251.6 40 249.62 40 248 40.36 248 40.8 248 41.24 246.92 41.6 245.6 41.6 244.28 41.6 243.2 41.96 243.2 42.4 243.2 42.84 241.84 43.2 240.18 43.2 238.07 43.2 236.8 43.69 236 44.8 235.32 45.74 233.93 46.4 232.62 46.4 231.4 46.4 230.4 46.76 230.4 47.2 230.4 47.64 229.68 48 228.8 48 227.92 48 227.2 48.36 227.2 48.8 227.2 49.24 226.52 49.6 225.7 49.6 224.87 49.6 223.75 50.14 223.2 50.8 222.65 51.46 221.74 52 221.17 52 220.61 52 219.23 53.08 218.12 54.4 217.01 55.72 215.72 56.8 215.24 56.8 214.01 56.8 197.6 73.37 197.6 74.61 197.6 75.18 196.88 76.17 196 76.8 195.12 77.43 194.4 78.51 194.4 79.2 194.4 79.89 193.68 80.97 192.8 81.6 191.92 82.23 191.2 83.52 191.2 84.45 191.2 85.39 190.48 86.8 189.6 87.6 188.72 88.4 188 89.89 188 90.92 188 91.96 187.64 92.8 187.2 92.8 186.76 92.8 186.4 93.5 186.4 94.35 186.4 95.21 186.08 96.1 185.69 96.34 185.31 96.58 184.74 99.12 184.43 101.99 184.12 104.86 183.54 107.2 183.14 107.2 182.73 107.2 182.4 109.54 182.4 112.4 182.4 115.33 182.05 117.6 181.6 117.6 181.09 117.6 180.8 123.47 180.8 133.6 180.8 143.73 181.09 149.6 181.6 149.6 182.06 149.6 182.4 152.13 182.4 155.6 182.4 158.9 182.72 161.6 183.12 161.6 183.51 161.6 184.09 164.55 184.41 168.15 184.76 172.12 185.59 175.75 186.5 177.37 187.32 178.84 188 181.12 188 182.42 188 183.73 188.36 184.8 188.8 184.8 189.24 184.8 189.6 185.52 189.6 186.4 189.6 187.28 189.96 188 190.4 188 190.84 188 191.2 188.72 191.2 189.6 191.2 190.48 190.84 191.2 190.4 191.2 189.96 191.2 189.6 190.84 189.6 190.4 189.6 189.96 188.88 189.6 188 189.6 187.12 189.6 186.4 189.24 186.4 188.8 186.4 188.36 185.56 188 184.52 188 183.49 188 182 187.29 181.21 186.42 180.43 185.54 178.57 184.6 177.09 184.33 175.61 184.05 174.4 183.5 174.4 183.11 174.4 182.72 173.76 182.4 172.98 182.4 172.19 182.4 171.03 181.68 170.4 180.8 169.77 179.92 168.75 179.2 168.14 179.2 167.54 179.2 166.03 178.12 164.8 176.8 163.57 175.48 162.06 174.4 161.46 174.4 160.85 174.4 159.83 173.68 159.2 172.8 158.57 171.92 157.56 171.2 156.96 171.2 156.36 171.2 154.43 169.67 152.67 167.8 150.91 165.93 146.26 161.1 142.34 157.07 138.41 153.05 135.2 149.44 135.2 149.05 135.2 148.67 134.48 147.83 133.6 147.2 132.72 146.57 132 145.49 132 144.8 132 144.11 131.28 143.03 130.4 142.4 129.52 141.77 128.8 140.69 128.8 140 128.8 139.31 128.08 138.23 127.2 137.6 126.26 136.92 125.6 135.53 125.6 134.22 125.6 133 125.24 132 124.8 132 124.36 132 124 131.28 124 130.4 124 129.52 123.64 128.8 123.2 128.8 122.76 128.8 122.4 127.72 122.4 126.4 122.4 125.08 122.04 124 121.6 124 121.16 124 120.8 122.92 120.8 121.6 120.8 120.28 120.44 119.2 120 119.2 119.56 119.2 119.2 117.22 119.2 114.8 119.2 112.38 118.84 110.4 118.4 110.4 117.91 110.4 117.6 106.4 117.6 100 117.6 93.6 117.91 89.6 118.4 89.6 118.85 89.6 119.2 87.33 119.2 84.4 119.2 81.47 119.55 79.2 120 79.2 120.44 79.2 120.8 78.48 120.8 77.6 120.8 76.72 121.16 76 121.6 76 122.04 76 122.4 74.56 122.4 72.8 122.4 71.04 122.76 69.6 123.2 69.6 123.64 69.6 124 68.88 124 68 124 67.12 124.36 66.4 124.8 66.4 125.24 66.4 125.6 65.4 125.6 64.18 125.6 62.87 126.26 61.48 127.2 60.8 128.08 60.17 128.8 59.01 128.8 58.22 128.8 57.44 129.16 56.8 129.6 56.8 130.04 56.8 130.4 56.16 130.4 55.38 130.4 54.59 131.12 53.43 132 52.8 132.88 52.17 133.6 51.37 133.6 51.03 133.6 50.68 135.04 48.87 136.8 47.01 138.56 45.14 140 43.28 140 42.88 140 42.48 142.34 39.86 145.2 37.05 148.06 34.25 150.4 31.61 150.4 31.18 150.4 30.75 150.97 30.4 151.66 30.4 152.36 30.4 154.31 28.96 156 27.2 157.69 25.44 159.56 24 160.16 24 160.76 24 161.77 23.28 162.4 22.4 163.04 21.52 164.47 20.8 165.6 20.8 166.73 20.8 168.16 20.08 168.8 19.2 169.46 18.29 170.87 17.6 172.08 17.6 173.25 17.6 174.65 17.06 175.2 16.4 175.75 15.74 177.41 15.2 178.89 15.2 180.72 15.2 181.91 14.69 182.59 13.6 183.19 12.63 184.45 12 185.79 12 187.01 12 188 11.64 188 11.2 188 10.76 189.8 10.4 192 10.4 194.2 10.4 196 10.04 196 9.6 196 9.16 197.44 8.8 199.2 8.8 200.96 8.8 202.4 8.44 202.4 8 202.4 7.5 207.6 7.2 216.4 7.2 225.2 7.2 230.4 7.5 230.4 8 230.4 8.44 231.84 8.8 233.6 8.8 235.36 8.8 236.8 9.16 236.8 9.6 236.8 10.04 238.6 10.4 240.8 10.4 243 10.4 244.8 10.76 244.8 11.2 244.8 11.64 245.88 12 247.2 12 248.52 12 249.6 12.27 249.61 12.6 249.61 13.3 253.47 15.2 254.87 15.2 255.39 15.2 256.85 15.74 258.11 16.4 259.37 17.05 261.31 17.59 262.42 17.6 263.54 17.6 264.97 18.32 265.6 19.2 266.24 20.08 267.67 20.8 268.8 20.8 269.93 20.8 271.36 21.52 272 22.4 272.63 23.28 273.71 24 274.4 24 275.09 24 276.17 24.72 276.8 25.6 277.43 26.48 278.59 27.2 279.38 27.2 280.16 27.2 280.8 27.56 280.8 28 280.8 29.39 282.4 28.87 284.44 26.84 287.23 24.05 286.54 19.2 283.36 19.2 282.94 19.2 282.15 18.66 281.6 18 281.05 17.34 280.01 16.8 279.28 16.8 278.55 16.8 277.43 16.08 276.8 15.2 276.16 14.32 274.73 13.6 273.6 13.6 272.47 13.6 271.04 12.88 270.4 12 269.72 11.06 268.33 10.4 267.02 10.4 265.8 10.4 264.8 10.04 264.8 9.6 264.8 9.16 264.16 8.8 263.38 8.8 262.59 8.8 261.43 8.08 260.8 7.2 260 6.09 258.73 5.6 256.62 5.6 254.96 5.6 253.6 5.24 253.6 4.8 253.6 4.36 252.88 4 252 4 251.12 4 250.4 3.64 250.4 3.2 250.4 2.76 248.81 2.4 246.87 2.4 244.75 2.4 243.2 2 243 1.4 242.67 0.41 198.66-0.33 192.2 0.55M250.8 181.6C250.53 182.04 247.63 182.4 244.35 182.4 241.08 182.4 238.4 182.72 238.4 183.12 238.4 183.51 235.45 184.09 231.85 184.41 227.88 184.76 224.25 185.59 222.63 186.5 221.16 187.32 218.88 188 217.58 188 216.27 188 215.2 188.36 215.2 188.8 215.2 189.24 214.48 189.6 213.6 189.6 212.72 189.6 212 189.96 212 190.4 212 190.84 211.11 191.2 210.03 191.2 208.8 191.2 207.7 191.88 207.11 193 206.59 193.99 205.94 194.98 205.66 195.2 203.13 197.24 198.13 212 199.96 212 200.42 212 200.8 212.72 200.8 213.6 200.8 214.48 201.16 215.2 201.6 215.2 202.04 215.2 202.4 216.46 202.4 218 202.4 219.54 202.76 220.8 203.2 220.8 203.64 220.8 204 221.52 204 222.4 204 223.28 204.36 224 204.8 224 205.24 224 205.6 225.8 205.6 228 205.6 230.2 205.96 232 206.4 232 206.84 232 207.2 233.08 207.2 234.4 207.2 235.72 207.56 236.8 208 236.8 208.45 236.8 208.8 239.05 208.8 241.95 208.8 244.79 209.16 247.33 209.6 247.6 210.04 247.87 210.4 249.69 210.4 251.65 210.4 253.6 210.76 255.2 211.2 255.2 211.7 255.2 212 259.47 212 266.4 212 273.33 211.7 277.6 211.2 277.6 210.76 277.6 210.4 279.22 210.4 281.2 210.4 283.18 210.04 284.8 209.6 284.8 209.16 284.8 208.8 286.93 208.8 289.6 208.8 292.27 208.44 294.4 208 294.4 207.56 294.4 207.2 295.12 207.2 296 207.2 296.88 206.84 297.6 206.4 297.6 205.96 297.6 205.6 298.96 205.6 300.62 205.6 302.73 205.11 304 204 304.8 203.12 305.44 202.4 306.87 202.4 308 202.4 309.13 201.68 310.56 200.8 311.2 199.92 311.83 199.2 312.99 199.2 313.78 199.2 314.56 198.84 315.2 198.4 315.2 197.96 315.2 197.6 315.67 197.6 316.23 197.6 316.8 196.16 318.59 194.4 320.21 192.64 321.83 191.2 323.62 191.2 324.19 191.2 324.76 189.58 326.79 187.6 328.71 185.62 330.63 184 332.52 184 332.9 184 333.29 183.43 333.6 182.74 333.6 182.04 333.6 180.09 335.04 178.4 336.8 176.71 338.56 174.76 340 174.06 340 173.37 340 172.8 340.36 172.8 340.8 172.8 341.24 172.08 341.6 171.2 341.6 170.32 341.6 169.6 341.96 169.6 342.4 169.6 342.84 168.88 343.2 168 343.2 167.12 343.2 166.4 343.56 166.4 344 166.4 344.44 165.76 344.8 164.98 344.8 164.19 344.8 163.03 345.52 162.4 346.4 161.72 347.34 160.33 348 159.02 348 157.8 348 156.8 348.33 156.8 348.72 156.8 349.12 154.64 349.69 152 350 149.36 350.31 147 350.88 146.75 351.28 146.51 351.68 144.89 352 143.15 352 141.42 352 140 352.36 140 352.8 140 353.31 134.02 353.6 123.65 353.6 113.61 353.6 107.1 353.29 106.8 352.8 106.53 352.36 105.09 352 103.6 352 102.11 352 100.7 351.68 100.46 351.29 100.22 350.91 97.68 350.34 94.81 350.03 91.95 349.72 89.6 349.14 89.6 348.74 89.6 348.33 88.52 348 87.2 348 85.88 348 84.8 347.64 84.8 347.2 84.8 346.76 84.43 346.4 83.97 346.4 83.51 346.4 82.36 345.68 81.42 344.8 80.47 343.92 78.95 343.2 78.03 343.2 77.11 343.2 75.83 342.48 75.2 341.6 74.56 340.72 73.13 340 72 340 70.87 340 69.44 339.28 68.8 338.4 68.17 337.52 67.16 336.8 66.56 336.8 65.96 336.8 64.09 335.36 62.4 333.6 60.71 331.84 58.9 330.4 58.39 330.4 57.26 330.4 44.82 317.55 44.81 316.38 44.8 315.92 44.08 315.03 43.2 314.4 42.32 313.77 41.6 312.69 41.6 312 41.6 311.31 40.88 310.23 40 309.6 39.12 308.97 38.4 307.89 38.4 307.2 38.4 306.51 37.68 305.43 36.8 304.8 35.92 304.17 35.2 303.01 35.2 302.22 35.2 301.44 34.84 300.8 34.4 300.8 33.96 300.8 33.6 300.08 33.6 299.2 33.6 298.32 33.24 297.6 32.8 297.6 32.36 297.6 32 296.88 32 296 32 295.12 31.64 294.4 31.2 294.4 30.76 294.4 30.4 293.68 30.4 292.8 30.4 291.92 30.04 291.2 29.6 291.2 29.16 291.2 28.8 290.48 28.8 289.6 28.8 288.72 28.44 288 28 288 27.56 288 27.2 286.74 27.2 285.2 27.2 283.66 26.84 282.4 26.4 282.4 25.96 282.4 25.6 281.68 25.6 280.8 25.6 279.92 25.24 279.2 24.8 279.2 24.36 279.2 24 277.4 24 275.2 24 273 23.64 271.2 23.2 271.2 22.76 271.2 22.4 270.12 22.4 268.8 22.4 267.48 22.04 266.4 21.6 266.4 21.16 266.4 20.8 265.32 20.8 264 20.8 261.63 19.08 260.65 18 262.4 17.73 262.84 16.63 263.2 15.55 263.2 13.7 263.2 13.6 263.44 13.6 268 13.6 270.67 13.96 272.8 14.4 272.8 14.84 272.8 15.2 273.88 15.2 275.2 15.2 276.52 15.51 277.6 15.89 277.6 16.27 277.6 16.78 279.84 17.03 282.58 17.28 285.32 17.87 287.69 18.34 287.85 18.81 288 19.2 289.18 19.2 290.47 19.2 291.75 19.56 292.8 20 292.8 20.44 292.8 20.8 293.52 20.8 294.4 20.8 295.28 21.16 296 21.6 296 22.04 296 22.4 297 22.4 298.22 22.4 299.53 23.06 300.92 24 301.6 24.88 302.24 25.6 303.67 25.6 304.8 25.6 305.93 26.32 307.36 27.2 308 28.08 308.63 28.8 309.55 28.8 310.03 28.8 310.51 29.88 311.94 31.2 313.2 32.52 314.46 33.6 315.89 33.6 316.37 33.6 316.85 34.32 317.77 35.2 318.4 36.08 319.03 36.8 320.02 36.8 320.59 36.8 321.16 39.77 324.64 43.4 328.34 47.03 332.03 51.37 336.52 53.05 338.33 54.72 340.13 56.53 341.6 57.07 341.6 57.61 341.6 58.57 342.32 59.2 343.2 59.83 344.08 60.94 344.8 61.65 344.8 62.37 344.8 63.6 345.52 64.4 346.4 65.2 347.28 66.33 348 66.92 348 67.52 348 68 348.36 68 348.8 68 349.24 68.69 349.6 69.54 349.6 70.39 349.6 71.63 350.14 72.29 350.8 72.95 351.46 74.41 352 75.54 352 76.67 352 77.6 352.36 77.6 352.8 77.6 353.24 78.32 353.6 79.2 353.6 80.08 353.6 80.8 353.96 80.8 354.4 80.8 354.84 81.7 355.2 82.8 355.2 83.9 355.2 84.8 355.56 84.8 356 84.8 356.44 85.52 356.8 86.4 356.8 87.28 356.8 88 357.16 88 357.6 88 358.04 89.44 358.4 91.2 358.4 92.96 358.4 94.4 358.76 94.4 359.2 94.4 359.64 95.84 360 97.6 360 99.36 360 100.8 360.36 100.8 360.8 100.8 361.27 103.73 361.6 108 361.6 112.27 361.6 115.2 361.93 115.2 362.4 115.2 362.88 118.53 363.2 123.6 363.2 128.67 363.2 132 362.88 132 362.4 132 361.93 134.78 361.6 138.75 361.6 142.47 361.6 145.73 361.24 146 360.8 146.27 360.36 147.37 360 148.45 360 149.52 360 150.4 359.64 150.4 359.2 150.4 358.76 152.2 358.4 154.4 358.4 156.6 358.4 158.4 358.04 158.4 357.6 158.4 357.16 159.12 356.8 160 356.8 160.88 356.8 161.6 356.44 161.6 356 161.6 355.56 162.68 355.2 164 355.2 165.32 355.2 166.4 354.84 166.4 354.4 166.4 353.96 167.12 353.6 168 353.6 168.88 353.6 169.6 353.24 169.6 352.8 169.6 352.36 170.32 352 171.2 352 172.08 352 172.8 351.71 172.8 351.35 172.8 350.99 174.53 349.95 176.64 349.02 178.76 348.1 180.96 346.77 181.54 346.07 182.12 345.37 182.92 344.8 183.31 344.8 184.43 344.8 204 324.93 204 323.78 204 323.22 204.72 322.23 205.6 321.6 206.48 320.97 207.2 319.68 207.2 318.75 207.2 317.81 207.92 316.4 208.8 315.6 209.68 314.8 210.4 313.47 210.4 312.64 210.4 311.81 211.12 310.36 212 309.42 212.93 308.42 213.6 306.59 213.6 305.05 213.6 303.59 213.96 302.4 214.4 302.4 214.84 302.4 215.2 301.68 215.2 300.8 215.2 299.92 215.51 299.2 215.88 299.2 216.26 299.2 216.8 296.41 217.09 293 217.38 289.59 217.97 286.68 218.41 286.53 219.43 286.19 219.49 246.4 218.47 246.4 218.07 246.4 217.52 243.25 217.24 239.4 216.96 235.55 216.38 231.78 215.96 231.01 215.54 230.25 215.2 228.92 215.2 228.06 215.2 227.2 214.84 226.27 214.4 226 213.96 225.73 213.6 224.52 213.6 223.31 213.6 220.92 211.96 216.82 211 216.81 210.67 216.8 210.4 215.39 210.4 213.67 210.4 211.88 209.97 210.38 209.4 210.18 208.82 209.97 208.7 209.52 209.11 209.11 209.52 208.7 209.97 208.82 210.18 209.4 210.37 209.95 211.45 210.4 212.57 210.4 213.7 210.4 215.2 211.05 215.91 211.84 217.37 213.46 225.56 217.6 227.3 217.6 227.93 217.6 228.97 218.32 229.6 219.2 230.23 220.08 231.31 220.8 232 220.8 232.69 220.8 233.77 221.52 234.4 222.4 235.03 223.28 236.11 224 236.8 224 237.49 224 238.57 224.72 239.2 225.6 239.83 226.48 240.84 227.2 241.43 227.2 242.02 227.2 244.29 229.09 246.47 231.4 254.51 239.9 265.18 250.4 265.78 250.4 266.12 250.4 266.4 251.04 266.4 251.82 266.4 252.61 267.12 253.77 268 254.4 268.88 255.03 269.6 256.11 269.6 256.8 269.6 257.49 270.32 258.57 271.2 259.2 272.08 259.84 272.8 261.27 272.8 262.4 272.8 263.53 273.52 264.96 274.4 265.6 275.48 266.38 276 267.67 276 269.6 276 271.53 276.52 272.82 277.6 273.6 278.82 274.48 279.2 275.67 279.2 278.58 279.2 280.68 279.56 282.4 280 282.4 280.44 282.4 280.8 283.3 280.8 284.4 280.8 285.5 281.16 286.4 281.6 286.4 282.1 286.4 282.4 291.47 282.4 300 282.4 308.53 282.1 313.6 281.6 313.6 281.16 313.6 280.8 314.86 280.8 316.4 280.8 317.94 280.44 319.2 280 319.2 279.56 319.2 279.2 320.64 279.2 322.4 279.2 324.16 278.84 325.6 278.4 325.6 277.96 325.6 277.6 326.32 277.6 327.2 277.6 328.08 277.24 328.8 276.8 328.8 276.36 328.8 276 329.88 276 331.2 276 332.52 275.64 333.6 275.2 333.6 274.76 333.6 274.4 334.32 274.4 335.2 274.4 336.08 274.04 336.8 273.6 336.8 273.16 336.8 272.8 337.52 272.8 338.4 272.8 339.28 272.44 340 272 340 271.56 340 271.2 340.72 271.2 341.6 271.2 342.48 270.84 343.2 270.4 343.2 269.96 343.2 269.6 343.84 269.6 344.62 269.6 345.41 268.88 346.57 268 347.2 267.12 347.83 266.4 348.77 266.4 349.29 266.4 349.8 265.32 351.07 264.01 352.11 262.69 353.15 261.6 354.54 261.59 355.2 261.58 355.86 258.88 359.05 255.59 362.29 252.29 365.53 249.6 368.5 249.6 368.89 249.6 369.28 249.02 369.6 248.32 369.6 247.62 369.6 246.03 370.68 244.8 372 243.57 373.32 242.06 374.4 241.46 374.4 240.85 374.4 239.83 375.12 239.2 376 238.57 376.88 237.49 377.6 236.8 377.6 236.11 377.6 235.03 378.32 234.4 379.2 233.76 380.08 232.33 380.8 231.2 380.8 230.07 380.8 228.64 381.52 228 382.4 227.37 383.28 225.94 384 224.82 384.01 223.71 384.01 221.77 384.55 220.51 385.21 219.25 385.86 217.54 386.4 216.71 386.4 215.88 386.4 215.2 386.76 215.2 387.2 215.2 387.64 214.12 388 212.8 388 211.48 388 210.4 388.36 210.4 388.8 210.4 389.24 209.32 389.6 208 389.6 206.68 389.6 205.6 389.96 205.6 390.4 205.6 390.86 203.2 391.2 200 391.2 196.8 391.2 194.4 391.54 194.4 392 194.4 392.49 190.27 392.8 183.6 392.8 176.93 392.8 172.8 392.49 172.8 392 172.8 391.54 170.4 391.2 167.2 391.2 164 391.2 161.6 390.86 161.6 390.4 161.6 389.96 160.52 389.6 159.2 389.6 157.88 389.6 156.8 389.24 156.8 388.8 156.8 388.36 155.72 388 154.4 388 153.08 388 152 387.64 152 387.2 152 386.76 150.78 386.4 149.3 386.4 147.81 386.4 146.15 385.86 145.6 385.2 145.05 384.53 143.3 384 141.68 384 139.67 384 138.39 383.5 137.6 382.4 136.96 381.52 135.53 380.8 134.4 380.8 133.27 380.8 131.84 380.08 131.2 379.2 130.57 378.32 129.41 377.6 128.62 377.6 127.84 377.6 127.2 377.24 127.2 376.8 127.2 376.36 126.48 376 125.6 376 124.72 376 124 375.64 124 375.2 124 374.76 123.36 374.4 122.58 374.4 121.79 374.4 120.63 373.68 120 372.8 119.37 371.92 118.03 371.2 117.02 371.2 115.73 371.2 115.2 371.67 115.2 372.8 115.2 373.68 114.84 374.4 114.4 374.4 110.75 374.4 115.78 382.08 119.98 382.92 121.31 383.18 122.4 383.72 122.4 384.1 122.4 384.49 123.04 384.8 123.82 384.8 124.61 384.8 125.77 385.52 126.4 386.4 127.03 387.28 128.19 388 128.98 388 129.76 388 130.4 388.36 130.4 388.8 130.4 389.24 131.12 389.6 132 389.6 132.88 389.6 133.6 389.96 133.6 390.4 133.6 390.84 134.32 391.2 135.2 391.2 136.08 391.2 136.8 391.56 136.8 392 136.8 392.44 137.88 392.8 139.2 392.8 140.52 392.8 141.6 393.16 141.6 393.6 141.6 394.04 142.32 394.4 143.2 394.4 144.08 394.4 144.8 394.76 144.8 395.2 144.8 395.64 146.04 396 147.55 396 149.07 396 150.53 396.36 150.8 396.8 151.07 397.24 152.14 397.6 153.18 397.6 154.22 397.6 155.22 398.05 155.4 398.6 155.66 399.37 162.02 399.6 183.6 399.6 205.18 399.6 211.54 399.37 211.8 398.6 211.98 398.05 213.18 397.6 214.47 397.6 215.75 397.6 216.8 397.24 216.8 396.8 216.8 396.36 217.98 396 219.42 396 221.13 396 222.45 395.44 223.2 394.4 223.98 393.32 225.27 392.8 227.2 392.8 229.13 392.8 230.42 392.28 231.2 391.2 231.83 390.32 232.99 389.6 233.78 389.6 234.56 389.6 235.2 389.24 235.2 388.8 235.2 388.36 235.84 388 236.62 388 237.41 388 238.57 387.28 239.2 386.4 239.83 385.52 240.99 384.8 241.78 384.8 242.56 384.8 243.2 384.45 243.2 384.02 243.2 383.58 244.09 383.01 245.17 382.74 246.25 382.47 247.52 381.78 248 381.2 248.47 380.63 249.57 380.35 250.43 380.58 251.52 380.86 252 380.59 252 379.69 252 377.99 269.99 360 271.69 360 272.6 360 272.86 359.52 272.57 358.39 272.33 357.5 272.65 356.26 273.27 355.64 273.89 355.02 274.4 354.03 274.4 353.43 274.4 352.84 275.12 351.83 276 351.2 276.88 350.57 277.6 349.64 277.6 349.15 277.6 348.65 278.32 347.6 279.2 346.8 280.08 346 280.8 344.55 280.8 343.57 280.8 342.6 281.34 341.35 282 340.8 282.66 340.25 283.2 338.77 283.2 337.5 283.2 336.24 283.56 335.2 284 335.2 284.44 335.2 284.8 334.48 284.8 333.6 284.8 332.72 285.16 332 285.6 332 286.04 332 286.4 331.28 286.4 330.4 286.4 329.52 286.76 328.8 287.2 328.8 287.64 328.8 288 326.67 288 324 288 321.33 288.36 319.2 288.8 319.2 289.24 319.2 289.6 318.3 289.6 317.2 289.6 316.1 289.96 315.2 290.4 315.2 290.9 315.2 291.2 309.87 291.2 300.8 291.2 291.73 290.9 286.4 290.4 286.4 289.96 286.4 289.6 285.14 289.6 283.6 289.6 282.06 289.24 280.8 288.8 280.8 288.36 280.8 288 279 288 276.8 288 274.6 287.64 272.8 287.2 272.8 286.76 272.8 286.4 272.08 286.4 271.2 286.4 270.32 286.04 269.6 285.6 269.6 285.16 269.6 284.8 268.88 284.8 268 284.8 267.12 284.44 266.4 284 266.4 283.56 266.4 283.2 265.36 283.2 264.1 283.2 262.83 282.66 261.35 282 260.8 281.34 260.25 280.8 259 280.8 258.03 280.8 257.05 280.08 255.6 279.2 254.8 278.32 254 277.6 252.87 277.6 252.28 277.6 251.7 276.88 250.76 276 250.21 275.12 249.67 274.4 248.66 274.4 247.98 274.4 247.31 273.68 246.23 272.8 245.6 271.92 244.97 271.2 243.98 271.2 243.41 271.2 242.15 254.78 225.6 253.52 225.6 253.02 225.6 251.36 224.16 249.81 222.4 248.27 220.64 246.6 219.2 246.1 219.2 245.59 219.2 244.21 218.3 243.03 217.2 241.84 216.1 240.39 215.2 239.81 215.2 239.23 215.2 238.23 214.48 237.6 213.6 236.97 212.72 235.81 212 235.02 212 234.24 212 233.6 211.64 233.6 211.2 233.6 210.76 232.88 210.4 232 210.4 231.12 210.4 230.4 210.04 230.4 209.6 230.4 209.16 229.76 208.8 228.98 208.8 228.19 208.8 227.03 208.08 226.4 207.2 225.76 206.32 224.33 205.6 223.2 205.6 222.07 205.6 220.64 204.88 220 204 219.37 203.12 218.03 202.4 217.02 202.4 216.02 202.4 215.2 202.04 215.2 201.6 215.2 201.16 214.48 200.8 213.6 200.8 212.72 200.8 212 200.44 212 200 212 199.56 213.08 199.2 214.4 199.2 215.72 199.2 216.8 198.84 216.8 198.4 216.8 197.96 217.34 197.6 218 197.6 218.66 197.6 219.2 197.24 219.2 196.8 219.2 196.36 220.64 196 222.4 196 224.16 196 225.6 195.64 225.6 195.2 225.6 194.76 226.68 194.4 228 194.4 229.32 194.4 230.4 194.04 230.4 193.6 230.4 193.16 232.2 192.8 234.4 192.8 236.6 192.8 238.4 192.44 238.4 192 238.4 191.56 239.84 191.2 241.6 191.2 243.36 191.2 244.8 190.84 244.8 190.4 244.8 189.91 248.4 189.6 254 189.6 259.6 189.6 263.2 189.29 263.2 188.8 263.2 188.36 265 188 267.2 188 269.4 188 271.2 188.36 271.2 188.8 271.2 189.28 274.53 189.6 279.6 189.6 284.67 189.6 288 189.92 288 190.4 288 190.84 289.08 191.2 290.4 191.2 291.72 191.2 292.8 191.56 292.8 192 292.8 192.44 294.24 192.8 296 192.8 297.76 192.8 299.2 193.16 299.2 193.6 299.2 194.04 299.92 194.4 300.8 194.4 301.68 194.4 302.4 194.76 302.4 195.2 302.4 195.64 303.4 196 304.62 196 305.93 196 307.32 196.66 308 197.6 308.63 198.48 310.01 199.2 311.06 199.2 312.14 199.2 313.93 200.24 315.2 201.6 316.43 202.92 317.68 204 317.98 204 318.8 204 320.43 205.83 321.04 207.45 321.34 208.26 322.21 208.8 323 208.67 324.58 208.4 333.6 216.45 333.6 218.14 333.6 218.72 334.32 219.2 335.2 219.2 336.2 219.2 336.8 219.73 336.8 220.62 336.8 221.41 337.52 222.57 338.4 223.2 339.28 223.83 340 224.99 340 225.78 340 226.56 340.36 227.2 340.8 227.2 341.24 227.2 341.6 227.92 341.6 228.8 341.6 229.68 341.96 230.4 342.4 230.4 342.84 230.4 343.2 231.04 343.2 231.82 343.2 232.61 343.92 233.77 344.8 234.4 345.74 235.08 346.4 236.47 346.4 237.78 346.4 239 346.76 240 347.2 240 347.64 240 348 240.72 348 241.6 348 242.48 348.33 243.2 348.72 243.2 349.12 243.2 349.69 245.36 350 248 350.31 250.64 350.88 253 351.28 253.25 351.68 253.49 352 255.11 352 256.85 352 258.58 352.36 260 352.8 260 353.31 260 353.6 265.98 353.6 276.35 353.6 286.39 353.29 292.9 352.8 293.2 352.36 293.47 352 294.91 352 296.4 352 297.89 351.69 299.3 351.31 299.53 350.94 299.76 350.42 302.21 350.17 304.96 349.92 307.71 349.33 310.09 348.86 310.25 348.39 310.4 348 311.58 348 312.87 348 314.15 347.64 315.2 347.2 315.2 346.76 315.2 346.4 315.74 346.4 316.4 346.4 317.06 346.04 317.6 345.6 317.6 345.16 317.6 344.8 318.32 344.8 319.2 344.8 320.08 344.44 320.8 344 320.8 343.56 320.8 343.2 321.44 343.2 322.22 343.2 323.01 342.48 324.17 341.6 324.8 340.72 325.44 340 326.87 340 328 340 329.13 339.28 330.56 338.4 331.2 337.52 331.83 336.8 332.84 336.8 333.44 336.8 334.04 335.36 335.91 333.6 337.6 331.84 339.29 330.4 341.1 330.4 341.62 330.4 342.66 319.2 353.6 318.14 353.6 317.77 353.6 316.09 355.04 314.4 356.8 312.71 358.56 310.84 360 310.24 360 309.64 360 308.63 360.72 308 361.6 307.36 362.48 305.93 363.2 304.8 363.2 303.67 363.2 302.24 363.92 301.6 364.8 300.97 365.68 299.81 366.4 299.02 366.4 298.24 366.4 297.6 366.76 297.6 367.2 297.6 367.64 296.88 368 296 368 295.12 368 294.4 368.36 294.4 368.8 294.4 369.24 293.68 369.6 292.8 369.6 291.92 369.6 291.2 369.96 291.2 370.4 291.2 370.84 290.12 371.2 288.8 371.2 287.48 371.2 286.4 371.56 286.4 372 286.4 372.44 285.86 372.8 285.2 372.8 284.54 372.8 284 373.16 284 373.6 284 374.04 282.56 374.4 280.8 374.4 279.04 374.4 277.6 374.76 277.6 375.2 277.6 375.64 276.88 376 276 376 275.12 376 274.4 376.36 274.4 376.8 274.4 377.24 272.27 377.6 269.6 377.6 266.93 377.6 264.8 377.96 264.8 378.4 264.8 378.84 264.08 379.2 263.2 379.2 261.54 379.2 260.99 381.13 262.4 382 262.84 382.27 263.2 383.37 263.2 384.45 263.2 386.26 263.49 386.4 267.2 386.4 269.4 386.4 271.2 386.04 271.2 385.6 271.2 385.16 272.97 384.8 275.13 384.8 277.3 384.8 279.19 384.45 279.33 384.03 279.48 383.6 281.76 383.01 284.4 382.7 287.53 382.34 289.65 381.64 290.49 380.67 291.28 379.78 292.87 379.2 294.52 379.2 296.33 379.2 297.64 378.66 298.4 377.6 299.04 376.72 300.47 376 301.6 376 302.73 376 304.16 375.28 304.8 374.4 305.43 373.52 306.72 372.8 307.66 372.8 308.6 372.8 310.49 371.72 311.87 370.4 313.26 369.08 314.9 368 315.54 368 316.17 368 316.92 367.28 317.2 366.4 317.48 365.52 318.4 364.8 319.25 364.8 320.27 364.8 320.8 364.25 320.8 363.2 320.8 362.28 321.33 361.6 322.06 361.6 322.76 361.6 324.71 360.16 326.4 358.4 328.09 356.64 330.04 355.2 330.74 355.2 331.43 355.2 332 354.56 332 353.78 332 352.99 332.76 351.82 333.69 351.18 336.29 349.37 341.58 343.71 341.59 342.72 341.6 342.24 342.32 341.2 343.2 340.4 344.08 339.6 344.8 338.55 344.8 338.05 344.8 337.56 345.52 336.63 346.4 336 347.28 335.37 348 334.21 348 333.42 348 332.64 348.36 332 348.8 332 349.24 332 349.6 331.31 349.6 330.46 349.6 329.61 350.14 328.37 350.8 327.71 351.46 327.05 352 325.59 352 324.46 352 323.33 352.36 322.4 352.8 322.4 353.24 322.4 353.6 321.68 353.6 320.8 353.6 319.92 353.96 319.2 354.4 319.2 354.84 319.2 355.2 318.3 355.2 317.2 355.2 316.1 355.56 315.2 356 315.2 356.44 315.2 356.8 314.48 356.8 313.6 356.8 312.72 357.16 312 357.6 312 358.04 312 358.4 310.56 358.4 308.8 358.4 307.04 358.76 305.6 359.2 305.6 359.64 305.6 360 304.16 360 302.4 360 300.64 360.36 299.2 360.8 299.2 361.27 299.2 361.6 296.27 361.6 292 361.6 287.73 361.93 284.8 362.4 284.8 362.88 284.8 363.2 281.47 363.2 276.4 363.2 271.33 362.88 268 362.4 268 361.93 268 361.6 265.07 361.6 260.8 361.6 256.53 361.27 253.6 360.8 253.6 360.36 253.6 360 252.7 360 251.6 360 250.5 359.64 249.6 359.2 249.6 358.76 249.6 358.4 247.8 358.4 245.6 358.4 243.4 358.04 241.6 357.6 241.6 357.16 241.6 356.8 240.88 356.8 240 356.8 239.12 356.44 238.4 356 238.4 355.56 238.4 355.2 237.32 355.2 236 355.2 234.68 354.84 233.6 354.4 233.6 353.96 233.6 353.6 232.88 353.6 232 353.6 231.12 353.24 230.4 352.8 230.4 352.36 230.4 352 229.68 352 228.8 352 227.92 351.71 227.2 351.35 227.2 350.99 227.2 349.95 225.47 349.02 223.36 348.1 221.25 346.77 219.04 346.07 218.46 345.37 217.88 344.8 217.08 344.8 216.69 344.8 215.65 328.18 199.2 327.13 199.2 326.64 199.2 325.23 198.12 324 196.8 322.77 195.48 321.26 194.4 320.66 194.4 320.05 194.4 319.03 193.68 318.4 192.8 317.77 191.92 316.48 191.2 315.55 191.2 314.61 191.2 313.2 190.48 312.4 189.6 311.6 188.72 310.11 188 309.08 188 308.04 188 307.2 187.64 307.2 187.2 307.2 186.76 306.5 186.4 305.65 186.4 304.79 186.4 303.9 186.08 303.66 185.69 303.42 185.31 300.88 184.74 298.01 184.43 295.15 184.12 292.8 183.54 292.8 183.14 292.8 182.73 290.64 182.4 288 182.4 285.33 182.4 283.2 182.04 283.2 181.6 283.2 181.09 277.35 180.8 267.25 180.8 257.48 180.8 251.1 181.11 250.8 181.6" stroke="none" fill="#4a1f50" fill-rule="evenodd"/></g></svg>