<svg xmlns="http://www.w3.org/2000/svg" xmlns:xlink="http://www.w3.org/1999/xlink" viewBox="0 0 16 16" version="1.1" x="0px" y="0px"><title>arrow-down</title><desc>Created with Sketch.</desc><g stroke="none" stroke-width="1" fill="none" fill-rule="evenodd"><g fill="#000000"><path d="M12.911,5.742 C12.911,5.819 12.881,5.888 12.822,5.948 L8.661,10.108 C8.601,10.168 8.533,10.198 8.455,10.198 C8.378,10.198 8.31,10.168 8.25,10.108 L4.089,5.948 C4.03,5.888 4,5.819 4,5.742 C4,5.665 4.03,5.596 4.089,5.536 L4.536,5.09 C4.596,5.03 4.664,5 4.742,5 C4.819,5 4.887,5.03 4.947,5.09 L8.456,8.599 L11.965,5.09 C12.025,5.03 12.093,5 12.171,5 C12.248,5 12.316,5.03 12.376,5.09 L12.822,5.536 C12.882,5.596 12.912,5.665 12.912,5.742 L12.911,5.742 Z"></path></g></g></svg>