<svg xmlns="http://www.w3.org/2000/svg" xmlns:xlink="http://www.w3.org/1999/xlink" viewBox="0 0 16 16" version="1.1" x="0px" y="0px"><title>arrow-left</title><desc>Created with Sketch.</desc><g stroke="none" stroke-width="1" fill="none" fill-rule="evenodd"><g fill="#000000"><path d="M9.456,12.911 C9.379,12.911 9.31,12.881 9.25,12.821 L5.09,8.661 C5.03,8.601 5,8.533 5,8.455 C5,8.378 5.03,8.31 5.09,8.25 L9.251,4.089 C9.31,4.03 9.379,4 9.456,4 C9.533,4 9.602,4.03 9.662,4.089 L10.108,4.536 C10.168,4.596 10.198,4.664 10.198,4.741 C10.198,4.819 10.168,4.887 10.108,4.947 L6.599,8.456 L10.108,11.965 C10.168,12.025 10.198,12.093 10.198,12.17 C10.198,12.248 10.168,12.316 10.108,12.376 L9.662,12.822 C9.602,12.882 9.533,12.912 9.456,12.912 L9.456,12.911 Z"></path></g></g></svg>