<svg xmlns="http://www.w3.org/2000/svg" xmlns:xlink="http://www.w3.org/1999/xlink" viewBox="0 0 16 16" version="1.1" x="0px" y="0px"><title>arrow-right</title><desc>Created with Sketch.</desc><g stroke="none" stroke-width="1" fill="none" fill-rule="evenodd"><g fill="#000000"><path d="M5.742,4.001 C5.819,4.001 5.888,4.031 5.948,4.09 L10.108,8.251 C10.168,8.311 10.198,8.379 10.198,8.456 C10.198,8.534 10.168,8.602 10.108,8.662 L5.948,12.823 C5.888,12.882 5.819,12.912 5.742,12.912 C5.665,12.912 5.596,12.882 5.537,12.823 L5.09,12.376 C5.03,12.316 5,12.248 5,12.17 C5,12.093 5.03,12.025 5.09,11.965 L8.599,8.456 L5.09,4.947 C5.03,4.887 5.001,4.819 5.001,4.741 C5.001,4.664 5.03,4.596 5.09,4.536 L5.537,4.09 C5.596,4.03 5.665,4 5.742,4 L5.742,4.001 Z"></path></g></g></svg>