<svg xmlns="http://www.w3.org/2000/svg" xmlns:xlink="http://www.w3.org/1999/xlink" viewBox="0 0 16 16" version="1.1" x="0px" y="0px"><title>arrow-up</title><desc>Created with Sketch.</desc><g stroke="none" stroke-width="1" fill="none" fill-rule="evenodd"><g fill="#000000"><path d="M4.001,9.456 C4.001,9.379 4.031,9.31 4.09,9.25 L8.251,5.09 C8.311,5.03 8.379,5 8.457,5 C8.534,5 8.602,5.03 8.662,5.09 L12.823,9.25 C12.882,9.31 12.912,9.379 12.912,9.456 C12.912,9.533 12.882,9.602 12.823,9.662 L12.376,10.108 C12.316,10.168 12.248,10.198 12.17,10.198 C12.093,10.198 12.025,10.168 11.965,10.108 L8.456,6.599 L4.947,10.108 C4.887,10.168 4.819,10.198 4.741,10.198 C4.664,10.198 4.596,10.168 4.536,10.108 L4.09,9.662 C4.03,9.602 4,9.533 4,9.456 L4.001,9.456 Z"></path></g></g></svg>